<svg width="32" height="33" viewBox="0 0 32 33" fill="none" xmlns="http://www.w3.org/2000/svg">
<path d="M13.3214 18.9285C13.3214 20.3071 12.3214 20.7428 11.0929 20.7428H7.87143V16.9642H11.1571C12.4857 16.9714 13.3214 17.5214 13.3214 18.9285ZM12.7714 13.0499C12.7714 11.7856 11.7929 11.4856 10.7071 11.4856H7.87857V14.6856H10.9286C12.0071 14.6856 12.7714 14.2142 12.7714 13.0499ZM22.2214 14.7071C20.9143 14.7071 20.0429 15.5214 19.9571 16.8285H24.4C24.2786 15.5071 23.5929 14.7071 22.2214 14.7071ZM32 3.71422V28.8571C32 30.7499 30.4643 32.2856 28.5714 32.2856H3.42857C1.53571 32.2856 0 30.7499 0 28.8571V3.71422C0 1.82136 1.53571 0.285645 3.42857 0.285645H28.5714C30.4643 0.285645 32 1.82136 32 3.71422ZM19.4071 11.2142H24.9643V9.86422H19.4071V11.2142ZM16.3357 19.0928C16.3357 17.3714 15.5214 15.8856 13.8357 15.4071C15.0643 14.8214 15.7071 14.1428 15.7071 12.7642C15.7071 10.0356 13.6714 9.37136 11.3214 9.37136H4.85714V23.0856H11.5071C14 23.0714 16.3357 21.8785 16.3357 19.0928ZM27.1429 18.0356C27.1429 15.0999 25.4214 12.6499 22.3143 12.6499C19.2857 12.6499 17.2357 14.9214 17.2357 17.9071C17.2357 20.9999 19.1857 23.1214 22.3143 23.1214C24.6857 23.1214 26.2214 22.0571 26.9643 19.7785H24.5571C24.2929 20.6285 23.2286 21.0714 22.4 21.0714C20.8 21.0714 19.9643 20.1356 19.9643 18.5499H27.1214C27.1286 18.3856 27.1429 18.2071 27.1429 18.0356Z" fill="#BA8274"/>
<path fill-rule="evenodd" clip-rule="evenodd" d="M16.3357 19.0928C16.3357 17.3714 15.5214 15.8856 13.8357 15.4071C15.0643 14.8214 15.7071 14.1428 15.7071 12.7642C15.7071 10.0356 13.6714 9.37136 11.3214 9.37136H4.85714V23.0856H11.5071C14 23.0714 16.3357 21.8785 16.3357 19.0928ZM11.0929 20.7428C12.3214 20.7428 13.3214 20.3071 13.3214 18.9285C13.3214 17.5214 12.4857 16.9714 11.1571 16.9642H7.87143V20.7428H11.0929ZM10.7071 11.4856C11.7929 11.4856 12.7714 11.7856 12.7714 13.0499C12.7714 14.2142 12.0071 14.6856 10.9286 14.6856H7.87857V11.4856H10.7071Z" fill="white"/>
<path fill-rule="evenodd" clip-rule="evenodd" d="M27.1429 18.0356C27.1429 15.0999 25.4214 12.6499 22.3143 12.6499C19.2857 12.6499 17.2357 14.9214 17.2357 17.9071C17.2357 20.9999 19.1857 23.1214 22.3143 23.1214C24.6857 23.1214 26.2214 22.0571 26.9643 19.7785H24.5571C24.2929 20.6285 23.2286 21.0714 22.4 21.0714C20.8 21.0714 19.9643 20.1356 19.9643 18.5499H27.1214C27.1286 18.3856 27.1429 18.2071 27.1429 18.0356ZM19.9571 16.8285C20.0429 15.5214 20.9143 14.7071 22.2214 14.7071C23.5929 14.7071 24.2786 15.5071 24.4 16.8285H19.9571Z" fill="white"/>
<path d="M19.4071 11.2142H24.9643V9.86422H19.4071V11.2142Z" fill="white"/>
</svg>
