<svg width="32" height="33" viewBox="0 0 32 33" fill="none" xmlns="http://www.w3.org/2000/svg">
<path d="M13.3214 18.9286C13.3214 20.3072 12.3214 20.7429 11.0929 20.7429H7.87143V16.9643H11.1571C12.4857 16.9715 13.3214 17.5215 13.3214 18.9286ZM12.7714 13.0501C12.7714 11.7858 11.7929 11.4858 10.7071 11.4858H7.87857V14.6858H10.9286C12.0071 14.6858 12.7714 14.2143 12.7714 13.0501ZM22.2214 14.7072C20.9143 14.7072 20.0429 15.5215 19.9571 16.8286H24.4C24.2786 15.5072 23.5929 14.7072 22.2214 14.7072ZM32 3.71434V28.8572C32 30.75 30.4643 32.2858 28.5714 32.2858H3.42857C1.53571 32.2858 0 30.75 0 28.8572V3.71434C0 1.82148 1.53571 0.285767 3.42857 0.285767H28.5714C30.4643 0.285767 32 1.82148 32 3.71434ZM19.4071 11.2143H24.9643V9.86434H19.4071V11.2143ZM16.3357 19.0929C16.3357 17.3715 15.5214 15.8858 13.8357 15.4072C15.0643 14.8215 15.7071 14.1429 15.7071 12.7643C15.7071 10.0358 13.6714 9.37148 11.3214 9.37148H4.85714V23.0858H11.5071C14 23.0715 16.3357 21.8786 16.3357 19.0929ZM27.1429 18.0358C27.1429 15.1001 25.4214 12.6501 22.3143 12.6501C19.2857 12.6501 17.2357 14.9215 17.2357 17.9072C17.2357 21.0001 19.1857 23.1215 22.3143 23.1215C24.6857 23.1215 26.2214 22.0572 26.9643 19.7786H24.5571C24.2929 20.6286 23.2286 21.0715 22.4 21.0715C20.8 21.0715 19.9643 20.1358 19.9643 18.5501H27.1214C27.1286 18.3858 27.1429 18.2072 27.1429 18.0358Z" fill="#BA8274"/>
<path fill-rule="evenodd" clip-rule="evenodd" d="M16.3357 19.0929C16.3357 17.3715 15.5214 15.8858 13.8357 15.4072C15.0643 14.8215 15.7071 14.1429 15.7071 12.7643C15.7071 10.0358 13.6714 9.37148 11.3214 9.37148H4.85714V23.0858H11.5071C14 23.0715 16.3357 21.8786 16.3357 19.0929ZM11.0929 20.7429C12.3214 20.7429 13.3214 20.3072 13.3214 18.9286C13.3214 17.5215 12.4857 16.9715 11.1571 16.9643H7.87143V20.7429H11.0929ZM10.7071 11.4858C11.7929 11.4858 12.7714 11.7858 12.7714 13.0501C12.7714 14.2143 12.0071 14.6858 10.9286 14.6858H7.87857V11.4858H10.7071Z" fill="#D9D9D9"/>
<path fill-rule="evenodd" clip-rule="evenodd" d="M27.1429 18.0358C27.1429 15.1001 25.4214 12.6501 22.3143 12.6501C19.2857 12.6501 17.2357 14.9215 17.2357 17.9072C17.2357 21.0001 19.1857 23.1215 22.3143 23.1215C24.6857 23.1215 26.2214 22.0572 26.9643 19.7786H24.5571C24.2929 20.6286 23.2286 21.0715 22.4 21.0715C20.8 21.0715 19.9643 20.1358 19.9643 18.5501H27.1214C27.1286 18.3858 27.1429 18.2072 27.1429 18.0358ZM19.9571 16.8286C20.0429 15.5215 20.9143 14.7072 22.2214 14.7072C23.5929 14.7072 24.2786 15.5072 24.4 16.8286H19.9571Z" fill="#D9D9D9"/>
<path d="M19.4071 11.2143H24.9643V9.86434H19.4071V11.2143Z" fill="#D9D9D9"/>
</svg>
