<svg width="32" height="32" viewBox="0 0 32 32" fill="none" xmlns="http://www.w3.org/2000/svg">
<path d="M6.44286 14.0143C7.07857 10.9857 9.11429 8.46428 11.85 7.17857C12.1071 7.52857 13.85 9.95 15.4714 12.8214C10.9 14.0357 6.87857 14.0214 6.44286 14.0143ZM22.4714 8.71428C20.0714 6.58571 16.8071 5.77857 13.7143 6.52857C13.9857 6.89286 15.7571 9.30714 17.3571 12.2429C20.8286 10.9357 22.2929 8.96428 22.4714 8.71428ZM10.0071 23.7143C12.9 25.9714 16.6714 26.3357 19.8143 25C19.6714 24.1429 19.1 21.1571 17.7286 17.6C13.7929 18.9429 11.0286 21.6286 10.0071 23.7143ZM17.0643 15.9857C16.8214 15.4286 16.55 14.8786 16.2714 14.3286C11.4 15.7857 6.67143 15.7286 6.24286 15.7143C6.24286 15.8143 6.23571 15.9143 6.23571 16.0143C6.23571 18.5214 7.18572 20.8071 8.74286 22.5429C10.3286 19.8357 13.5357 16.9786 17.0643 15.9857ZM19.5571 17.15C20.8357 20.6571 21.35 23.5143 21.45 24.1071C23.6429 22.6286 25.2 20.2786 25.6357 17.5643C25.3071 17.4571 22.6143 16.6571 19.5571 17.15ZM18.1071 13.6929C18.45 14.3929 18.7 14.9643 18.9643 15.6071C22.2143 15.2 25.4429 15.85 25.7643 15.9214C25.7429 13.6143 24.9214 11.5 23.5571 9.84286C23.35 10.1214 21.7143 12.2143 18.1071 13.6929ZM32 3.42857V28.5714C32 30.4643 30.4643 32 28.5714 32H3.42857C1.53571 32 0 30.4643 0 28.5714V3.42857C0 1.53571 1.53571 0 3.42857 0H28.5714C30.4643 0 32 1.53571 32 3.42857ZM27.4286 16C27.4286 9.7 22.3 4.57143 16 4.57143C9.7 4.57143 4.57143 9.7 4.57143 16C4.57143 22.3 9.7 27.4286 16 27.4286C22.3 27.4286 27.4286 22.3 27.4286 16Z" fill="white"/>
<path fill-rule="evenodd" clip-rule="evenodd" d="M27.4286 16C27.4286 9.7 22.3 4.57143 16 4.57143C9.7 4.57143 4.57143 9.7 4.57143 16C4.57143 22.3 9.7 27.4286 16 27.4286C22.3 27.4286 27.4286 22.3 27.4286 16ZM11.85 7.17857C9.11429 8.46428 7.07857 10.9857 6.44286 14.0143C6.87857 14.0214 10.9 14.0357 15.4714 12.8214C13.85 9.95 12.1071 7.52857 11.85 7.17857ZM13.7143 6.52857C16.8071 5.77857 20.0714 6.58571 22.4714 8.71428C22.2929 8.96428 20.8286 10.9357 17.3571 12.2429C15.7571 9.30714 13.9857 6.89286 13.7143 6.52857ZM19.8143 25C16.6714 26.3357 12.9 25.9714 10.0071 23.7143C11.0286 21.6286 13.7929 18.9429 17.7286 17.6C19.1 21.1571 19.6714 24.1429 19.8143 25ZM16.2714 14.3286C16.55 14.8786 16.8214 15.4286 17.0643 15.9857C13.5357 16.9786 10.3286 19.8357 8.74286 22.5429C7.18572 20.8071 6.23571 18.5214 6.23571 16.0143C6.23571 15.9143 6.24286 15.8143 6.24286 15.7143C6.67143 15.7286 11.4 15.7857 16.2714 14.3286ZM21.45 24.1071C21.35 23.5143 20.8357 20.6571 19.5571 17.15C22.6143 16.6571 25.3071 17.4571 25.6357 17.5643C25.2 20.2786 23.6429 22.6286 21.45 24.1071ZM18.9643 15.6071C18.7 14.9643 18.45 14.3929 18.1071 13.6929C21.7143 12.2143 23.35 10.1214 23.5571 9.84286C24.9214 11.5 25.7429 13.6143 25.7643 15.9214C25.4429 15.85 22.2143 15.2 18.9643 15.6071Z" fill="#CBA197"/>
</svg>
