<svg width="32" height="33" viewBox="0 0 32 33" fill="none" xmlns="http://www.w3.org/2000/svg">
<path d="M6.44286 14.2999C7.07857 11.2714 9.11429 8.74993 11.85 7.46422C12.1071 7.81422 13.85 10.2356 15.4714 13.1071C10.9 14.3214 6.87857 14.3071 6.44286 14.2999ZM22.4714 8.99993C20.0714 6.87136 16.8071 6.06422 13.7143 6.81422C13.9857 7.1785 15.7571 9.59279 17.3571 12.5285C20.8286 11.2214 22.2929 9.24993 22.4714 8.99993ZM10.0071 23.9999C12.9 26.2571 16.6714 26.6214 19.8143 25.2856C19.6714 24.4285 19.1 21.4428 17.7286 17.8856C13.7929 19.2285 11.0286 21.9142 10.0071 23.9999ZM17.0643 16.2714C16.8214 15.7142 16.55 15.1642 16.2714 14.6142C11.4 16.0714 6.67143 16.0142 6.24286 15.9999C6.24286 16.0999 6.23571 16.1999 6.23571 16.2999C6.23571 18.8071 7.18572 21.0928 8.74286 22.8285C10.3286 20.1214 13.5357 17.2642 17.0643 16.2714ZM19.5571 17.4356C20.8357 20.9428 21.35 23.7999 21.45 24.3928C23.6429 22.9142 25.2 20.5642 25.6357 17.8499C25.3071 17.7428 22.6143 16.9428 19.5571 17.4356ZM18.1071 13.9785C18.45 14.6785 18.7 15.2499 18.9643 15.8928C22.2143 15.4856 25.4429 16.1356 25.7643 16.2071C25.7429 13.8999 24.9214 11.7856 23.5571 10.1285C23.35 10.4071 21.7143 12.4999 18.1071 13.9785ZM32 3.71422V28.8571C32 30.7499 30.4643 32.2856 28.5714 32.2856H3.42857C1.53571 32.2856 0 30.7499 0 28.8571V3.71422C0 1.82136 1.53571 0.285645 3.42857 0.285645H28.5714C30.4643 0.285645 32 1.82136 32 3.71422ZM27.4286 16.2856C27.4286 9.98564 22.3 4.85707 16 4.85707C9.7 4.85707 4.57143 9.98564 4.57143 16.2856C4.57143 22.5856 9.7 27.7142 16 27.7142C22.3 27.7142 27.4286 22.5856 27.4286 16.2856Z" fill="#BA8274"/>
<path fill-rule="evenodd" clip-rule="evenodd" d="M27.4286 16.2856C27.4286 9.98564 22.3 4.85707 16 4.85707C9.7 4.85707 4.57143 9.98564 4.57143 16.2856C4.57143 22.5856 9.7 27.7142 16 27.7142C22.3 27.7142 27.4286 22.5856 27.4286 16.2856ZM11.85 7.46422C9.11429 8.74993 7.07857 11.2714 6.44286 14.2999C6.87857 14.3071 10.9 14.3214 15.4714 13.1071C13.85 10.2356 12.1071 7.81422 11.85 7.46422ZM13.7143 6.81422C16.8071 6.06422 20.0714 6.87136 22.4714 8.99993C22.2929 9.24993 20.8286 11.2214 17.3571 12.5285C15.7571 9.59279 13.9857 7.1785 13.7143 6.81422ZM19.8143 25.2856C16.6714 26.6214 12.9 26.2571 10.0071 23.9999C11.0286 21.9142 13.7929 19.2285 17.7286 17.8856C19.1 21.4428 19.6714 24.4285 19.8143 25.2856ZM16.2714 14.6142C16.55 15.1642 16.8214 15.7142 17.0643 16.2714C13.5357 17.2642 10.3286 20.1214 8.74286 22.8285C7.18572 21.0928 6.23571 18.8071 6.23571 16.2999C6.23571 16.1999 6.24286 16.0999 6.24286 15.9999C6.67143 16.0142 11.4 16.0714 16.2714 14.6142ZM21.45 24.3928C21.35 23.7999 20.8357 20.9428 19.5571 17.4356C22.6143 16.9428 25.3071 17.7428 25.6357 17.8499C25.2 20.5642 23.6429 22.9142 21.45 24.3928ZM18.9643 15.8928C18.7 15.2499 18.45 14.6785 18.1071 13.9785C21.7143 12.4999 23.35 10.4071 23.5571 10.1285C24.9214 11.7856 25.7429 13.8999 25.7643 16.2071C25.4429 16.1356 22.2143 15.4856 18.9643 15.8928Z" fill="white"/>
</svg>
