<svg width="32" height="33" viewBox="0 0 32 33" fill="none" xmlns="http://www.w3.org/2000/svg">
<path d="M6.44286 14.3001C7.07857 11.2715 9.11429 8.75005 11.85 7.46434C12.1071 7.81434 13.85 10.2358 15.4714 13.1072C10.9 14.3215 6.87857 14.3072 6.44286 14.3001ZM22.4714 9.00005C20.0714 6.87148 16.8071 6.06434 13.7143 6.81434C13.9857 7.17862 15.7571 9.59291 17.3571 12.5286C20.8286 11.2215 22.2929 9.25005 22.4714 9.00005ZM10.0071 24.0001C12.9 26.2572 16.6714 26.6215 19.8143 25.2858C19.6714 24.4286 19.1 21.4429 17.7286 17.8858C13.7929 19.2286 11.0286 21.9143 10.0071 24.0001ZM17.0643 16.2715C16.8214 15.7143 16.55 15.1643 16.2714 14.6143C11.4 16.0715 6.67143 16.0143 6.24286 16.0001C6.24286 16.1001 6.23571 16.2001 6.23571 16.3001C6.23571 18.8072 7.18572 21.0929 8.74286 22.8286C10.3286 20.1215 13.5357 17.2643 17.0643 16.2715ZM19.5571 17.4358C20.8357 20.9429 21.35 23.8001 21.45 24.3929C23.6429 22.9143 25.2 20.5643 25.6357 17.85C25.3071 17.7429 22.6143 16.9429 19.5571 17.4358ZM18.1071 13.9786C18.45 14.6786 18.7 15.2501 18.9643 15.8929C22.2143 15.4858 25.4429 16.1358 25.7643 16.2072C25.7429 13.9001 24.9214 11.7858 23.5571 10.1286C23.35 10.4072 21.7143 12.5001 18.1071 13.9786ZM32 3.71434V28.8572C32 30.75 30.4643 32.2858 28.5714 32.2858H3.42857C1.53571 32.2858 0 30.75 0 28.8572V3.71434C0 1.82148 1.53571 0.285767 3.42857 0.285767H28.5714C30.4643 0.285767 32 1.82148 32 3.71434ZM27.4286 16.2858C27.4286 9.98577 22.3 4.85719 16 4.85719C9.7 4.85719 4.57143 9.98577 4.57143 16.2858C4.57143 22.5858 9.7 27.7143 16 27.7143C22.3 27.7143 27.4286 22.5858 27.4286 16.2858Z" fill="#BA8274"/>
<path fill-rule="evenodd" clip-rule="evenodd" d="M27.4286 16.2858C27.4286 9.98577 22.3 4.85719 16 4.85719C9.7 4.85719 4.57143 9.98577 4.57143 16.2858C4.57143 22.5858 9.7 27.7143 16 27.7143C22.3 27.7143 27.4286 22.5858 27.4286 16.2858ZM11.85 7.46434C9.11429 8.75005 7.07857 11.2715 6.44286 14.3001C6.87857 14.3072 10.9 14.3215 15.4714 13.1072C13.85 10.2358 12.1071 7.81434 11.85 7.46434ZM13.7143 6.81434C16.8071 6.06434 20.0714 6.87148 22.4714 9.00005C22.2929 9.25005 20.8286 11.2215 17.3571 12.5286C15.7571 9.59291 13.9857 7.17862 13.7143 6.81434ZM19.8143 25.2858C16.6714 26.6215 12.9 26.2572 10.0071 24.0001C11.0286 21.9143 13.7929 19.2286 17.7286 17.8858C19.1 21.4429 19.6714 24.4286 19.8143 25.2858ZM16.2714 14.6143C16.55 15.1643 16.8214 15.7143 17.0643 16.2715C13.5357 17.2643 10.3286 20.1215 8.74286 22.8286C7.18572 21.0929 6.23571 18.8072 6.23571 16.3001C6.23571 16.2001 6.24286 16.1001 6.24286 16.0001C6.67143 16.0143 11.4 16.0715 16.2714 14.6143ZM21.45 24.3929C21.35 23.8001 20.8357 20.9429 19.5571 17.4358C22.6143 16.9429 25.3071 17.7429 25.6357 17.85C25.2 20.5643 23.6429 22.9143 21.45 24.3929ZM18.9643 15.8929C18.7 15.2501 18.45 14.6786 18.1071 13.9786C21.7143 12.5001 23.35 10.4072 23.5571 10.1286C24.9214 11.7858 25.7429 13.9001 25.7643 16.2072C25.4429 16.1358 22.2143 15.4858 18.9643 15.8929Z" fill="#D9D9D9"/>
</svg>
