<svg width="84" height="81" viewBox="0 0 84 81" fill="none" xmlns="http://www.w3.org/2000/svg">
<g id="Full Bee">
<path id="Vector 3" d="M51.1975 43.0049C49.0116 45.4531 45.0388 50.1176 43.3059 52.8289M42.4773 54.4847C41.815 54.8158 39.313 59.2679 37.9516 60.5557M42.4773 54.4847C43.0292 54.9262 42.882 57.5018 42.4773 58.7896M42.4773 54.4847C42.8121 54.3172 42.8512 53.5405 43.3059 52.8289M37.9516 60.5557C37.0685 60.335 36.2958 58.9 36.2958 58.9M37.9516 60.5557L37.3997 62.3219L38.1723 63.3153M36.2958 58.9C36.2958 58.9 35.6335 59.1208 34.7505 57.3546M36.2958 58.9L31.2182 65.523M34.7505 57.3546C34.0514 58.4585 31.9026 60.9973 28.9002 62.3219M34.7505 57.3546C36.2284 56.2816 38.9474 54.0767 42.0357 51.1188M34.7505 57.3546C35.622 56.2305 36.9357 54.6139 38.4818 52.8289M49.8729 42.5634C47.3311 45.7803 44.56 48.7011 42.0357 51.1188M31.2182 65.523L27.3548 66.5164M31.2182 65.523C31.071 66.4428 31.0416 68.5695 32.1013 69.7175M32.1013 69.7175C32.6532 69.0552 34.2039 68.5301 34.7505 67.9514M32.1013 69.7175C32.3207 69.9552 31.8946 70.4227 31.2182 70.969M27.7964 73.4705C28.5943 72.8055 30.1934 71.7967 31.2182 70.969M38.1723 63.3153L39.8281 62.3219M38.1723 63.3153C37.8412 64.2352 36.627 65.9645 34.7505 67.9514M39.8281 62.3219L42.4773 58.7896M39.8281 62.3219C39.7177 63.1313 39.9385 64.3087 40.4904 64.7503C40.8467 65.0354 40.3316 65.4258 39.2762 66.1563M42.4773 58.7896V61.218M34.7505 67.9514C34.7505 68.6137 38.0342 67.0158 39.2762 66.1563M39.2762 66.1563L36.8477 69.7175M36.8477 69.7175C35.4128 69.0552 33.0947 72.6978 31.2182 70.969M36.8477 69.7175C36.4062 72.4771 29.9819 77.9962 32.1013 77.9962M48.4379 43.0049C45.2483 45.3826 41.4397 49.4139 38.4818 52.8289M42.0357 51.1188L43.3059 52.8289M38.4818 52.8289C35.5455 54.3743 29.121 57.9507 26.9133 59.8934" stroke="black" stroke-width="0.25"/>
<g id="Legs">
<path d="M58.1155 12.9449L58.8882 11.7307C59.7345 11.4731 60.5439 11.5762 60.3232 11.7307C59.4401 12.3488 61.2062 14.4903 62.1997 15.4837L61.427 16.6979C61.2062 16.8819 60.3894 17.2498 58.8882 17.2498C57.387 17.2498 56.6437 17.8385 56.4598 18.1329C56.7173 18.6112 56.6725 20.974 56.0543 21.5039C55.4362 22.0337 56.0543 22.8416 56.0543 23.6879C55.6864 23.5775 54.4729 22.6586 54.0313 20.8925C53.6561 19.3914 54.4108 18.2433 54.5833 17.6914C55.1352 15.9252 57.5636 15.0422 58.8882 14.711C59.9479 14.4461 58.8146 13.1657 58.1155 12.9449Z" fill="#313131"/>
<path d="M62.4204 41.1149C59.991 40.1924 58.9986 38.7368 58.8882 38.148L60.3232 37.1187L64.0762 38.9952C63.9658 39.1792 63.9437 39.503 64.7385 39.3264C65.5332 39.1498 65.6583 37.781 65.6215 37.1187H67.1669C68.3075 37.7074 69.1538 39.6575 68.7122 40.0991C67.1318 41.6795 68.4699 42.0859 68.2707 42.0859C67.8292 42.0859 67.498 43.0058 66.8357 42.8586C66.1734 42.7114 64.9592 42.9466 63.5243 42.4171C63.5243 42.0636 63.5243 41.534 62.4204 41.1149Z" fill="#313131"/>
<path d="M38.4674 29.2815L37.1428 31.0477L36.1493 29.7231C36.1125 28.3617 35.8182 25.9701 34.9351 27.2947C34.0521 28.6193 29.3424 30.3486 27.098 31.0477L22.793 32.1515L15.9493 31.0477C15.7285 31.1581 15.4415 31.7541 14.7351 31.4892C14.0286 31.2243 13.0794 32.1147 12.8586 32.8138C11.7548 31.7836 10.9821 30.3854 11.8651 30.3854C13.7938 30.3854 14.6983 30.1646 14.9559 29.7231C15.1398 30.0174 15.5932 30.1335 16.722 29.7231C17.9362 29.2815 21.8364 29.4287 23.7865 29.7231L24.5592 29.2815C27.7235 27.6258 34.5598 24.5793 36.5909 25.6389C38.6219 26.6986 38.6881 28.5089 38.4674 29.2815Z" fill="#313131"/>
<path d="M44.2073 45.1767C44.3839 43.8521 43.3242 42.6379 42.7723 42.1963C42.4044 42.0859 41.3373 41.534 41.3373 42.4171C41.3373 43.5209 43.3242 46.3708 41.6685 46.6116C35.5974 47.4947 32.9482 51.1373 31.4029 51.1373C30.1666 51.1373 28.8273 52.4619 28.3122 53.1242C27.8706 54.0441 26.9213 55.9942 26.6564 56.4357C26.3253 56.9876 25.1111 57.098 24.4488 58.0915C23.7865 59.0849 22.0204 58.0915 22.5723 58.4226C23.0138 58.6875 22.3883 59.6368 22.0204 60.0784C23.5657 60.0784 23.064 61.0718 23.3449 60.6303C24.1176 59.4161 25.8837 59.6368 25.8837 58.9745C25.8837 58.4447 26.6196 58.165 26.9876 58.0915C26.4725 57.9811 27.2083 57.4814 27.5395 57.4292C29.2173 57.1642 31.5501 53.7129 32.5067 52.0204C32.8379 52.2779 33.5002 52.2412 33.5002 52.0204C33.5002 51.4022 34.8983 51.1741 35.5974 51.1373L43.3242 47.7155C43.545 47.4211 44.0307 46.5013 44.2073 45.1767Z" fill="#313131"/>
<path fill-rule="evenodd" clip-rule="evenodd" d="M41.4791 12.4488C41.4986 12.8903 41.6594 12.9206 41.4838 13.2016C41.239 13.5932 40.8852 14.2958 40.7106 14.711C39.5414 17.4907 39.835 20.6231 40.1231 21.7755H41.8892C41.8892 21.7173 41.8809 21.6207 41.8707 21.5039C41.8425 21.1779 41.8006 20.6947 41.8892 20.4509C42.5881 18.529 43.2042 16.8911 43.6482 15.7105C43.8469 15.1821 44.0112 14.7454 44.133 14.4158C42.698 14.4158 41.4838 13.9742 41.2143 13.7003L41.4838 13.2016C42.8445 13.2016 44.133 13.9742 44.3177 13.828C44.98 12.393 46.1942 8.97114 45.7526 6.76349C45.2007 4.00392 46.4317 2.48427 47.6292 1.68588C47.9603 1.4651 46.8123 0.692425 46.3046 1.13397C44.3135 2.86525 44.3167 6.29374 44.3176 7.26011C44.3177 7.27955 44.3177 7.29799 44.3177 7.3154H43.1035C41.3724 10.0249 41.4375 11.5028 41.4791 12.4488Z" fill="#313131"/>
<path d="M44.3177 13.828C44.133 13.9742 42.8445 13.2016 41.4838 13.2016L41.2143 13.7003C41.4838 13.9742 42.698 14.4158 44.133 14.4158C44.2893 13.9929 44.2559 13.9742 44.3177 13.828Z" fill="#CEBB14"/>
<path fill-rule="evenodd" clip-rule="evenodd" d="M50.9406 45.7286L51.9341 46.2805C51.7133 46.5013 51.5146 46.722 52.0445 47.1635C52.2796 47.3595 52.7653 47.4998 53.4174 47.6882C54.6019 48.0304 56.3358 48.5313 58.1155 49.8127L56.0182 52.0204C55.6541 52.2935 51.1614 48.8193 50.2783 47.9362C50.2504 47.9083 50.186 47.9004 50.1148 47.8916C49.9868 47.8758 49.8368 47.8573 49.8368 47.7155L50.9406 45.7286ZM57.0117 52.4619C57.0117 52.4619 59.109 55.2215 62.5308 55.5526C62.565 55.5185 62.6014 55.4795 62.6399 55.4383C62.8506 55.2128 63.123 54.9214 63.4139 55.0007C64.0156 55.1648 64.4019 55.6542 64.7588 56.1062C65.122 56.5663 65.4546 56.9876 65.9527 56.9876C66.7254 56.9876 67.5387 57.0283 68.4915 57.9811C68.8226 58.3122 69.8161 55.663 68.8226 55.663C68.5997 55.663 68.433 55.7287 68.28 55.789C68.13 55.8481 67.9931 55.902 67.8292 55.8838L66.1734 55.7734C63.8922 52.7195 60.9855 50.3646 58.8882 50.3646L57.0117 52.4619Z" fill="#313131"/>
<path d="M58.8882 50.3646C58.6414 50.3646 58.5353 50.115 58.1155 49.8127L56.0182 52.0204C56.4598 51.6892 57.0117 52.4619 57.0117 52.4619L58.8882 50.3646Z" fill="#CEBB14"/>
<path d="M41.4838 13.2016C42.8445 13.2016 44.133 13.9742 44.3177 13.828M41.4838 13.2016C41.239 13.5932 40.8852 14.2958 40.7106 14.711C39.5414 17.4907 39.835 20.6231 40.1231 21.7755H41.8892C41.8892 21.7173 41.8809 21.6207 41.8707 21.5039C41.8425 21.1779 41.8006 20.6947 41.8892 20.4509C42.5881 18.529 43.2042 16.8911 43.6482 15.7105C43.8469 15.1821 44.0112 14.7454 44.133 14.4158M41.4838 13.2016L41.2143 13.7003C41.4838 13.9742 42.698 14.4158 44.133 14.4158M41.4838 13.2016C41.6594 12.9206 41.4986 12.8903 41.4791 12.4488C41.4375 11.5028 41.3724 10.0249 43.1035 7.3154H44.3177C44.3177 7.29799 44.3177 7.27955 44.3176 7.26011C44.3167 6.29374 44.3135 2.86525 46.3046 1.13397C46.8123 0.692425 47.9603 1.4651 47.6292 1.68588C46.4317 2.48427 45.2007 4.00392 45.7526 6.76349C46.1942 8.97114 44.98 12.393 44.3177 13.828M44.3177 13.828C44.2559 13.9742 44.2893 13.9929 44.133 14.4158M58.1155 49.8127C58.5353 50.115 58.6414 50.3646 58.8882 50.3646M58.1155 49.8127L56.0182 52.0204M58.1155 49.8127C56.3358 48.5313 54.6019 48.0304 53.4174 47.6882C52.7653 47.4998 52.2796 47.3595 52.0445 47.1635C51.5146 46.722 51.7133 46.5013 51.9341 46.2805L50.9406 45.7286L49.8368 47.7155C49.8368 47.8573 49.9868 47.8758 50.1148 47.8916C50.186 47.9004 50.2504 47.9083 50.2783 47.9362C51.1614 48.8193 55.6541 52.2935 56.0182 52.0204M58.8882 50.3646C60.9855 50.3646 63.8922 52.7195 66.1734 55.7734L67.8292 55.8838C67.9931 55.902 68.13 55.8481 68.28 55.789C68.433 55.7287 68.5997 55.663 68.8226 55.663C69.8161 55.663 68.8226 58.3122 68.4915 57.9811C67.5387 57.0283 66.7254 56.9876 65.9527 56.9876C65.4546 56.9876 65.122 56.5663 64.7588 56.1062C64.4019 55.6542 64.0156 55.1648 63.4139 55.0007C63.123 54.9214 62.8506 55.2128 62.6399 55.4383C62.6014 55.4795 62.565 55.5185 62.5308 55.5526C59.109 55.2215 57.0117 52.4619 57.0117 52.4619M58.8882 50.3646L57.0117 52.4619M57.0117 52.4619C57.0117 52.4619 56.4598 51.6892 56.0182 52.0204M58.8882 11.7307L58.1155 12.9449C58.8146 13.1657 59.9479 14.4461 58.8882 14.711C57.5636 15.0422 55.1352 15.9252 54.5833 17.6914C54.4108 18.2433 53.6561 19.3914 54.0313 20.8925C54.4729 22.6586 55.6864 23.5775 56.0543 23.6879C56.0543 22.8416 55.4362 22.0337 56.0543 21.5039C56.6725 20.974 56.7173 18.6112 56.4598 18.1329C56.6437 17.8385 57.387 17.2498 58.8882 17.2498C60.3894 17.2498 61.2062 16.8819 61.427 16.6979L62.1997 15.4837C61.2062 14.4903 59.4401 12.3488 60.3232 11.7307C60.5439 11.5762 59.7345 11.4731 58.8882 11.7307ZM58.8882 38.148C58.9986 38.7368 59.991 40.1924 62.4204 41.1149C63.5243 41.534 63.5243 42.0636 63.5243 42.4171C64.9592 42.9466 66.1734 42.7114 66.8357 42.8586C67.498 43.0058 67.8292 42.0859 68.2707 42.0859C68.4699 42.0859 67.1318 41.6795 68.7122 40.0991C69.1538 39.6575 68.3075 37.7074 67.1669 37.1187H65.6215C65.6583 37.781 65.5332 39.1498 64.7385 39.3264C63.9437 39.503 63.9658 39.1792 64.0762 38.9952L60.3232 37.1187L58.8882 38.148ZM37.1428 31.0477L38.4674 29.2815C38.6881 28.5089 38.6219 26.6986 36.5909 25.6389C34.5598 24.5793 27.7235 27.6258 24.5592 29.2815L23.7865 29.7231C21.8364 29.4287 17.9362 29.2815 16.722 29.7231C15.5932 30.1335 15.1398 30.0174 14.9559 29.7231C14.6983 30.1646 13.7938 30.3854 11.8651 30.3854C10.9821 30.3854 11.7548 31.7836 12.8586 32.8138C13.0794 32.1147 14.0286 31.2243 14.7351 31.4892C15.4415 31.7541 15.7285 31.1581 15.9493 31.0477L22.793 32.1515L27.098 31.0477C29.3424 30.3486 34.0521 28.6193 34.9351 27.2947C35.8182 25.9701 36.1125 28.3617 36.1493 29.7231L37.1428 31.0477ZM42.7723 42.1963C43.3242 42.6379 44.3839 43.8521 44.2073 45.1767C44.0307 46.5013 43.545 47.4211 43.3242 47.7155L35.5974 51.1373C34.8983 51.1741 33.5002 51.4022 33.5002 52.0204C33.5002 52.2412 32.8379 52.2779 32.5067 52.0204C31.5501 53.7129 29.2173 57.1642 27.5395 57.4292C27.2083 57.4814 26.4725 57.9811 26.9876 58.0915C26.6196 58.165 25.8837 58.4447 25.8837 58.9745C25.8837 59.6368 24.1176 59.4161 23.3449 60.6303C23.064 61.0718 23.5657 60.0783 22.0204 60.0783C22.3883 59.6368 23.0138 58.6875 22.5723 58.4226C22.0204 58.0915 23.7865 59.0849 24.4488 58.0915C25.1111 57.098 26.3253 56.9876 26.6564 56.4357C26.9213 55.9942 27.8706 54.0441 28.3122 53.1242C28.8273 52.4619 30.1666 51.1373 31.4029 51.1373C32.9482 51.1373 35.5974 47.4947 41.6685 46.6116C43.3242 46.3708 41.3373 43.5209 41.3373 42.4171C41.3373 41.534 42.4044 42.0859 42.7723 42.1963Z" stroke="black"/>
</g>
<g id="Right wing">
<path d="M42.9931 62.8379C48.672 49.4355 50.3887 46.0597 52.7068 42.6379V40.08C53.3691 40.8527 50.1918 44.2046 50.6456 43.9983C51.8598 43.4464 42.9931 59.6727 42.5877 61.77C42.2633 63.4478 41.643 64.3823 41.3734 64.6399C41.2631 65.5397 40.667 67.9033 39.1658 70.159C32.8961 80.2546 29.8936 78.6585 27.7964 79.8315C28.9859 80.2746 30.1138 79.7562 31.1821 79.2849C34.9351 77.6292 37.4739 75.8631 42.9931 62.8379Z" fill="#974545"/>
<path d="M54.4729 39.1056L48.0707 42.6379C44.8696 42.6379 41.5581 47.9362 40.4543 48.3778C38.2159 49.2731 32.102 54.0809 29.1952 57.5395L25.1111 60.4095L26.3253 61.2925C25.1847 65.1559 23.345 73.6996 25.1111 76.9669C26.039 78.6836 26.9339 79.5103 27.7964 79.8315C29.8936 78.6585 32.8961 80.2546 39.1658 70.159C40.667 67.9033 41.2631 65.5397 41.3734 64.6399C41.643 64.3823 42.2633 63.4478 42.5877 61.77C42.9931 59.6727 51.8598 43.4464 50.6456 43.9983C50.1918 44.2046 53.3691 40.8527 52.7068 40.08V42.6379C53.1945 41.9178 53.737 39.9519 54.4729 39.1056Z" fill="#CEBB14" fill-opacity="0.19"/>
<path d="M52.7068 42.6379C53.1945 41.9178 53.737 39.9519 54.4729 39.1056L48.0707 42.6379C44.8696 42.6379 41.5581 47.9362 40.4543 48.3778C38.2159 49.2731 32.102 54.0809 29.1952 57.5395L25.1111 60.4095L26.3253 61.2925C25.1847 65.1559 23.345 73.6996 25.1111 76.9669C26.039 78.6836 26.9339 79.5103 27.7964 79.8315M52.7068 42.6379C50.3887 46.0597 48.672 49.4355 42.9931 62.8379C37.4739 75.8631 34.9351 77.6292 31.1821 79.2849C30.1138 79.7562 28.9859 80.2746 27.7964 79.8315M52.7068 42.6379V40.08C53.3691 40.8527 50.1918 44.2046 50.6456 43.9983C51.8598 43.4464 42.9931 59.6727 42.5877 61.77C42.2633 63.4478 41.643 64.3823 41.3734 64.6399C41.2631 65.5397 40.667 67.9033 39.1658 70.159C32.8961 80.2546 29.8936 78.6585 27.7964 79.8315" stroke="black" stroke-width="0.5"/>
</g>
<g id="Left wing">
<path d="M43.636 22.2871C39.9988 21.7005 31.345 18.2622 21.306 14.0163C8.2225 8.48277 3.2177 12.4091 1.99724 13.0598C1.45299 13.35 1.20515 14.0683 1.14575 14.7434C1.58902 14.1589 2.69695 12.9257 3.58249 12.6692C4.12357 12.5125 5.06267 12.1028 6.46068 11.8172C7.92273 11.5186 9.88668 11.3557 12.4222 11.7599C16.3901 12.3924 19.5782 13.7684 20.6763 14.3773L22.1051 15.0325L24.7759 16.2571L30.0185 18.661L41.3496 22.7428C41.9506 22.7236 43.3644 22.8569 44.2121 23.5427C45.0598 24.2286 46.1872 24.9478 46.2945 25.108C47.0927 24.8297 47.2726 24.4191 48.2519 24.4284L45.2895 22.5236L43.636 22.2871Z" fill="#974545"/>
<path d="M1.30661 16.0337C2.97071 19.03 12.0277 29.3622 14.982 28.9688C17.303 28.6597 21.1694 28.3654 25.471 28.7375C26.3509 29.077 28.1169 29.0938 33.9848 27.2731C34.8917 26.9917 35.9716 27.292 40.2763 27.333C40.9919 27.3398 41.7955 26.8674 42.7508 26.3018C43.5726 25.8152 45.2075 25.487 46.2945 25.108C46.1872 24.9478 45.0598 24.2286 44.2121 23.5427C43.3644 22.8569 41.9506 22.7236 41.3496 22.7428L30.0185 18.661L24.7759 16.2571L22.1051 15.0325L20.6763 14.3773C19.5782 13.7684 16.3901 12.3924 12.4222 11.7599C9.88668 11.3557 7.92273 11.5186 6.46068 11.8172C5.06267 12.1028 4.12357 12.5125 3.58249 12.6692C2.69695 12.9257 1.58902 14.1589 1.14575 14.7434C1.09859 15.2794 1.17023 15.7881 1.30661 16.0337Z" fill="#CEBB14" fill-opacity="0.19"/>
<path d="M1.14575 14.7434C1.20515 14.0683 1.45299 13.35 1.99724 13.0598C3.2177 12.4091 8.2225 8.48277 21.306 14.0163C31.345 18.2622 39.9988 21.7005 43.636 22.2871L45.2895 22.5236L48.2519 24.4284C47.2726 24.4191 47.0927 24.8297 46.2945 25.108M1.14575 14.7434C1.09859 15.2794 1.17023 15.7881 1.30661 16.0337C2.97071 19.03 12.0277 29.3622 14.982 28.9688C17.303 28.6597 21.1694 28.3654 25.471 28.7375C26.3509 29.077 28.1169 29.0938 33.9848 27.2731C34.8917 26.9917 35.9716 27.292 40.2763 27.333C40.9919 27.3398 41.7955 26.8674 42.7508 26.3018C43.5726 25.8152 45.2075 25.487 46.2945 25.108M1.14575 14.7434C1.58902 14.1589 2.69695 12.9257 3.58249 12.6692C4.12357 12.5125 5.06267 12.1028 6.46068 11.8172C7.92273 11.5186 9.88668 11.3557 12.4222 11.7599C16.3901 12.3924 19.5783 13.7684 20.6763 14.3773L22.1051 15.0325L24.7759 16.2571L30.0185 18.661L41.3496 22.7428C41.9506 22.7236 43.3644 22.8569 44.2121 23.5427C45.0598 24.2286 46.1872 24.9478 46.2945 25.108" stroke="black" stroke-width="0.5"/>
</g>
<path id="Body" d="M69.0795 28.5447C68.7483 26.2267 68.3171 25.454 67.9395 24.6455C63.0084 14.0846 56.2089 20.858 55.9078 21.701C55.3559 23.2464 55.9078 24.3143 55.9078 24.6455C55.9078 24.9767 48.9537 23.8728 46.9668 24.6455C44.6604 25.5424 42.1066 26.1936 40.1231 27.8466C37.9332 29.6715 36.6352 32.5569 36.3701 32.1515C30.7405 23.5416 5.54784 38.053 6.67712 50.475C6.9882 53.8969 27.5887 61.5133 40.8958 44.1832C41.5105 43.3827 41.5581 41.9756 41.5581 41.9756C41.5581 41.9756 46.5253 42.6379 47.8499 42.6379C49.6603 42.6379 53.7002 41.7548 55.3559 40.8717C56.4578 40.284 60.6175 38.0386 60.5439 36.6772C62.6044 37.3027 66.9682 38.046 67.9395 36.0149C69.1537 33.4761 69.4261 30.971 69.0795 28.5447Z" fill="#CEBB14" stroke="black"/>
<g id="Antennae">
<path d="M67.5341 20.7076V23.7983H66.6511L66.4303 20.7076L67.3134 19.7141L72.9429 9.22778L73.4948 7.90318H74.2675L74.0467 9.22778L67.5341 20.7076Z" fill="#974545"/>
<path d="M67.9757 27.8825H68.8587L70.4041 29.8693L81.7735 36.1612L82.8773 37.7065H81.7735L80.78 36.8235L70.7352 30.8628L69.3002 30.5316L67.9757 27.8825Z" fill="#974545"/>
<path d="M67.5341 20.7076V23.7983H66.6511L66.4303 20.7076L67.3134 19.7141L72.9429 9.22778L73.4948 7.90318H74.2675L74.0467 9.22778L67.5341 20.7076Z" stroke="black"/>
<path d="M67.9757 27.8825H68.8587L70.4041 29.8693L81.7735 36.1612L82.8773 37.7065H81.7735L80.78 36.8235L70.7352 30.8628L69.3002 30.5316L67.9757 27.8825Z" stroke="black"/>
</g>
<g id="Black Stripes">
<g id="Vector 1">
<path d="M16.0958 55.0007C11.6805 50.6737 10.6503 43.0417 10.9078 40.1349C7.11066 44.1087 6.30855 48.892 6.6029 50.6213C7.00187 52.9652 16.3211 55.2215 16.0958 55.0007Z" fill="#974545"/>
<path d="M20.2542 55.0007C12.3067 48.3778 12.3067 40.7614 13.3001 37.781C13.6193 36.8235 15.6182 35.126 15.287 36.0149C13.6092 40.5185 22.793 55.0007 22.793 55.0007C22.793 55.0007 21.063 55.6747 20.2542 55.0007Z" fill="#974545"/>
<path d="M26.5461 54.228C19.5699 48.3115 18.0466 38.2961 18.157 34.028C19.6287 31.9675 21.448 31.6355 21.063 32.5185C19.5618 35.9625 25.2951 47.8626 28.5329 53.5658C28.5329 54.228 27.4571 55.0007 26.5461 54.228Z" fill="#974545"/>
<path d="M31.5133 52.2412C27.2746 48.2674 24.4488 36.6036 23.5657 31.2684C24.3745 30.4213 27.2656 29.207 27.2084 29.9439C26.5019 39.0394 32.2124 47.0532 35.1559 49.9231C34.7505 51.0628 32.1403 52.8289 31.5133 52.2412Z" fill="#974545"/>
<path d="M42.1461 36.0149C38.9339 26.3327 50.3512 24.9021 55.944 25.3437C59.9178 26.8449 60.7272 33.7705 60.4697 36.0149C56.1647 40.0632 44.8314 44.1087 42.1461 36.0149Z" fill="#974545"/>
<path d="M16.0958 55.0007C11.6805 50.6737 10.6503 43.0417 10.9078 40.1349C7.11066 44.1087 6.30855 48.892 6.6029 50.6213C7.00187 52.9652 16.3211 55.2215 16.0958 55.0007Z" stroke="black"/>
<path d="M20.2542 55.0007C12.3067 48.3778 12.3067 40.7614 13.3001 37.781C13.6193 36.8235 15.6182 35.126 15.287 36.0149C13.6092 40.5185 22.793 55.0007 22.793 55.0007C22.793 55.0007 21.063 55.6747 20.2542 55.0007Z" stroke="black"/>
<path d="M26.5461 54.228C19.5699 48.3115 18.0466 38.2961 18.157 34.028C19.6287 31.9675 21.448 31.6355 21.063 32.5185C19.5618 35.9625 25.2951 47.8626 28.5329 53.5658C28.5329 54.228 27.4571 55.0007 26.5461 54.228Z" stroke="black"/>
<path d="M31.5133 52.2412C27.2746 48.2674 24.4488 36.6036 23.5657 31.2684C24.3745 30.4213 27.2656 29.207 27.2084 29.9439C26.5019 39.0394 32.2124 47.0532 35.1559 49.9231C34.7505 51.0628 32.1403 52.8289 31.5133 52.2412Z" stroke="black"/>
<path d="M42.1461 36.0149C38.9339 26.3327 50.3512 24.9021 55.944 25.3437C59.9178 26.8449 60.7272 33.7705 60.4697 36.0149C56.1647 40.0632 44.8314 44.1087 42.1461 36.0149Z" stroke="black"/>
</g>
<path id="Vector 2" d="M38.6139 46.9019C33.9778 43.7008 31.7701 32.8833 31.1078 29.5718C31.439 29.5718 32.4324 29.1303 35.7439 31.4483C37.51 32.6846 41.5574 42.1922 40.8215 44.5838C40.6857 45.0254 38.8864 47.09 38.6139 46.9019Z" fill="#974545" stroke="black"/>
</g>
<path id="Left wing Inside" d="M44.2894 23.4634C40.7694 23.2724 34.6389 22.8426 31.7058 22.3451M6.42817 12.0977C6.06022 12.2685 5.5451 12.7646 6.42817 13.3827C7.31123 14.0009 9.59247 13.885 10.6227 13.7497C11.9473 13.8969 14.7952 14.3679 15.5899 15.0743M15.5899 15.0743C14.9644 15.4812 13.581 16.2274 13.0511 15.9574C12.3888 15.6199 9.96041 17.9443 10.9539 17.9443C11.7486 17.9443 13.2719 20.7903 13.9342 22.2133M15.5899 15.0743C16.0464 15.4801 17.7615 15.6673 19.3429 15.689M21.2937 15.6199C22.1345 15.5346 22.5769 15.376 22.1025 15.1639L24.7848 16.3631L26.7386 18.717M21.2937 15.6199C21.3058 16.1372 21.5727 17.3261 22.544 17.9443M21.2937 15.6199C20.7598 15.6741 20.0653 15.6988 19.3429 15.689M22.544 17.9443C23.5154 18.5624 25.7451 18.717 26.7386 18.717M22.544 17.9443C22.544 18.533 22.1246 19.4676 20.4468 18.4962M26.7386 18.717C27.8424 19.4528 30.0501 21.1012 30.0501 21.8077M30.0501 21.8077C28.2839 21.8077 25.1932 21.1454 22.544 20.9246M30.0501 21.8077C30.0501 21.9902 30.6839 22.1718 31.7058 22.3451M13.9342 22.2133L10.9539 23.7946M13.9342 22.2133C16.5834 21.8077 23.2201 23.4634 22.544 22.6907M19.3429 15.689C17.5889 16.0728 14.5965 16.9696 14.5965 17.9443M14.5965 17.9443C14.5965 18.717 6.2074 18.2754 6.09702 18.717M14.5965 17.9443C15.8475 17.7235 18.769 17.5248 20.4468 18.4962M22.544 22.6907V25.2295M22.544 22.6907C22.2865 22.3964 21.9259 21.9843 22.544 20.9246M22.544 25.2295C21.2195 25.2295 17.9448 25.5239 16.473 25.6711M22.544 25.2295C24.3588 25.2253 26.6601 25.235 29.0566 25.2678C35.6004 25.3573 42.8545 25.6187 42.8545 26.2363M22.544 25.2295C24.2153 25.0622 27.5075 24.4232 31.7058 24.3106M20.4468 18.4962C20.2628 19.2321 20.4247 20.748 22.544 20.9246M43.7014 24.788C39.3486 24.6134 35.2113 24.2166 31.7058 24.3106M31.7058 22.3451C31.485 22.9337 31.176 23.8238 31.7058 24.3106" stroke="black" stroke-width="0.25"/>
<g id="Eyes">
<path d="M61.4631 23.6879C58.7035 24.8498 56.6246 22.1426 56.4959 21.3699C56.3671 20.5972 56.827 18.5735 59.0347 17.8376C62.1254 16.8074 63.45 19.015 64.0019 19.383C64.0019 19.9717 64.2227 22.526 61.4631 23.6879Z" fill="#313131"/>
<path d="M62.1254 35.7196C61.6786 33.8431 62.0008 32.1619 64.0019 31.3043C67.0926 29.9797 68.2185 32.2315 68.7483 33.2912C69.2782 34.3509 67.9389 37.081 67.0926 37.5961C65.952 38.2584 62.4407 37.0442 62.1254 35.7196Z" fill="#313131"/>
<path d="M61.4631 23.6879C58.7035 24.8498 56.6246 22.1426 56.4959 21.3699C56.3671 20.5972 56.827 18.5735 59.0347 17.8376C62.1254 16.8074 63.45 19.015 64.0019 19.383C64.0019 19.9717 64.2227 22.526 61.4631 23.6879Z" stroke="black" stroke-width="0.25"/>
<path d="M62.1254 35.7196C61.6786 33.8431 62.0008 32.1619 64.0019 31.3043C67.0926 29.9797 68.2185 32.2315 68.7483 33.2912C69.2782 34.3509 67.9389 37.081 67.0926 37.5961C65.952 38.2584 62.4407 37.0442 62.1254 35.7196Z" stroke="black" stroke-width="0.25"/>
</g>
</g>
</svg>
