<svg width="22" height="23" viewBox="0 0 22 23" fill="none" xmlns="http://www.w3.org/2000/svg">
<path d="M17.7143 8.5L16.5238 5.75L13.9047 4.5L16.5238 3.25L17.7143 0.5L18.9047 3.25L21.5238 4.5L18.9047 5.75L17.7143 8.5ZM17.7143 22.5L16.5238 19.75L13.9047 18.5L16.5238 17.25L17.7143 14.5L18.9047 17.25L21.5238 18.5L18.9047 19.75L17.7143 22.5ZM8.19046 19.5L5.80951 14L0.571411 11.5L5.80951 9L8.19046 3.5L10.5714 9L15.8095 11.5L10.5714 14L8.19046 19.5ZM8.19046 14.65L9.14284 12.5L11.1905 11.5L9.14284 10.5L8.19046 8.35L7.23808 10.5L5.19046 11.5L7.23808 12.5L8.19046 14.65Z" fill="#42241E"/>
</svg>
